<?xml version="1.0" encoding="UTF-8"?>
<svg id="_レイヤー_1" xmlns="http://www.w3.org/2000/svg" version="1.1" viewBox="0 0 101.15 101.15">
  <!-- Generator: Adobe Illustrator 29.8.4, SVG Export Plug-In . SVG Version: 2.1.1 Build 6)  -->
  <defs>
    <style>
      .st0 {
        fill: #c6b35f;
      }

      .st1 {
        display: none;
        fill: #d6ae00;
      }
    </style>
  </defs>
  <path class="st1" d="M50.58,0l4.46,13.18c5.25,15.51,17.43,27.69,32.94,32.94l13.18,4.46-13.18,4.46c-15.51,5.25-27.69,17.43-32.94,32.94l-4.46,13.18-4.46-13.18c-5.25-15.51-17.43-27.69-32.94-32.94L0,50.58l13.18-4.46c15.51-5.25,27.69-17.43,32.94-32.94L50.58,0Z"/>
  <polygon class="st0" points="70.6 77.49 63.49 86.45 72.46 79.35 74.98 101.1 77.49 79.35 86.45 86.45 79.35 77.49 101.1 74.98 79.35 72.46 86.45 63.49 77.49 70.6 74.98 48.86 72.46 70.6 63.49 63.49 70.6 72.46 48.86 74.98 70.6 77.49"/>
  <polygon class="st0" points="33.14 43.62 22.33 57.26 35.97 46.45 39.8 79.54 43.62 46.45 57.26 57.26 46.45 43.62 79.54 39.8 46.45 35.97 57.26 22.33 43.62 33.14 39.8 .06 35.97 33.14 22.33 22.33 33.14 35.97 .06 39.8 33.14 43.62"/>
</svg>