<?xml version="1.0" encoding="UTF-8"?>
<svg id="_レイヤー_1" xmlns="http://www.w3.org/2000/svg" version="1.1" viewBox="0 0 512 512">
  <!-- Generator: Adobe Illustrator 29.8.4, SVG Export Plug-In . SVG Version: 2.1.1 Build 6)  -->
  <defs>
    <style>
      .st0 {
        fill: #d6ae00;
      }

      .st1 {
        fill: #fff;
      }
    </style>
  </defs>
  <path class="st1" d="M465.51,94.68c0,6.37-1.6,12.75-4.79,19.12-2.79,5.97-8.58,10.36-17.36,13.14-18.36,5.58-38.91,10.75-61.66,15.53s-43.7,9.16-62.85,13.14c6.38,18.32,13.17,36.84,20.35,55.56,7.58,18.32,14.97,35.65,22.15,51.98,7.18,15.93,13.77,29.28,19.75,40.03,1.6,3.19,2.39,5.97,2.39,8.36,0,2.79-1.4,5.18-4.19,7.17-2.79,1.59-5.19,2.39-7.18,2.39-2.79,0-7.18-.6-13.17-1.79-5.59-1.59-11.37-3.39-17.36-5.38-5.59-1.99-9.98-3.39-13.17-4.18-9.58-3.19-20.95-5.97-34.12-8.36-13.17-2.79-24.94-4.18-35.32-4.18-13.57,0-28.13,2.19-43.7,6.57-15.17,4.38-28.13,11.75-38.91,22.11-10.38,9.96-15.56,23.7-15.56,41.23,0,23.5,7.58,41.23,22.75,53.17,15.56,11.95,34.52,20.51,56.87,25.69,16.36,3.98,33.12,6.57,50.28,7.77,17.16.8,32.32,1.19,45.49,1.19,3.19,0,7.38-.4,12.57-1.19,5.19-.8,9.18-1.59,11.97-2.39-3.19-5.18-4.79-11.15-4.79-17.92,0-9.56,3.99-17.33,11.97-23.3,8.38-6.37,16.96-9.56,25.74-9.56s17.16,3.19,23.94,9.56c6.78,5.97,10.18,13.94,10.18,23.9,0,11.55-6.38,21.31-19.16,29.28-12.37,7.57-27.34,13.34-44.9,17.33-8.78,1.99-18.56,3.78-29.33,5.38s-20.75,2.79-29.93,3.58c-9.18.8-15.96,1.19-20.35,1.19-23.15,0-43.5-1.19-61.06-3.58-17.56-1.99-37.31-7.17-59.26-15.53-18.36-6.77-33.92-18.52-46.69-35.25-12.77-17.13-19.16-35.65-19.16-55.56,0-16.73,4.99-32.26,14.97-46.6,10.38-14.34,23.15-26.49,38.31-36.45,15.56-9.96,30.73-16.33,45.49-19.12,14.37-2.79,29.73-4.18,46.09-4.18,9.98,0,20.35,1,31.13,2.99,10.77,1.99,20.95,3.98,30.53,5.97-9.98-17.53-18.76-36.64-26.34-57.36-7.58-21.11-15.36-42.22-23.35-63.33-31.53,6.37-64.45,11.75-98.77,16.13-34.32,3.98-67.44,7.17-99.37,9.56-2.79-11.95-6.19-24.1-10.18-36.45,19.16-.4,39.91-1,62.26-1.79,22.75-1.19,45.69-2.79,68.84-4.78,23.55-2.39,45.89-5.38,67.04-8.96-2.79-8.36-5.99-17.92-9.58-28.68-3.19-11.15-6.58-22.5-10.18-34.06-3.59-11.55-6.78-21.91-9.58-31.07,0,0,2.99-.8,8.98-2.39,5.99-1.99,13.17-4.18,21.55-6.57,8.78-2.39,17.16-4.78,25.14-7.17,8.38-2.39,14.57-4.18,18.56-5.38,2,12.35,4.79,28.28,8.38,47.8,3.59,19.12,8.38,38.84,14.37,59.15,13.57-2.39,28.13-5.38,43.7-8.96,15.96-3.58,31.93-7.97,47.89-13.14-3.19-2.39-4.79-6.37-4.79-11.95,0-8.76,2.79-15.93,8.38-21.51,5.99-5.58,13.57-8.36,22.75-8.36s17.36,2.59,24.54,7.77,10.77,12.75,10.77,22.7h.04Z"/>
  <path class="st0" d="M465.51,94.68c0,6.37-1.6,12.75-4.79,19.12-2.79,5.97-8.58,10.36-17.36,13.14-18.36,5.58-38.91,10.75-61.66,15.53s-43.7,9.16-62.85,13.14c6.38,18.32,13.17,36.84,20.35,55.56,7.58,18.32,14.97,35.65,22.15,51.98,7.18,15.93,13.77,29.28,19.75,40.03,1.6,3.19,2.39,5.97,2.39,8.36,0,2.79-1.4,5.18-4.19,7.17-2.79,1.59-5.19,2.39-7.18,2.39-2.79,0-7.18-.6-13.17-1.79-5.59-1.59-11.37-3.39-17.36-5.38-5.59-1.99-9.98-3.39-13.17-4.18-9.58-3.19-20.95-5.97-34.12-8.36-13.17-2.79-24.94-4.18-35.32-4.18-13.57,0-28.13,2.19-43.7,6.57-15.17,4.38-28.13,11.75-38.91,22.11-10.38,9.96-15.56,23.7-15.56,41.23,0,23.5,7.58,41.23,22.75,53.17,15.56,11.95,34.52,20.51,56.87,25.69,16.36,3.98,33.12,6.57,50.28,7.77,17.16.8,32.32,1.19,45.49,1.19,3.19,0,7.38-.4,12.57-1.19,5.19-.8,9.18-1.59,11.97-2.39-3.19-5.18-4.79-11.15-4.79-17.92,0-9.56,3.99-17.33,11.97-23.3,8.38-6.37,16.96-9.56,25.74-9.56s17.16,3.19,23.94,9.56c6.78,5.97,10.18,13.94,10.18,23.9,0,11.55-6.38,21.31-19.16,29.28-12.37,7.57-27.34,13.34-44.9,17.33-8.78,1.99-18.56,3.78-29.33,5.38s-20.75,2.79-29.93,3.58c-9.18.8-15.96,1.19-20.35,1.19-23.15,0-43.5-1.19-61.06-3.58-17.56-1.99-37.31-7.17-59.26-15.53-18.36-6.77-33.92-18.52-46.69-35.25-12.77-17.13-19.16-35.65-19.16-55.56,0-16.73,4.99-32.26,14.97-46.6,10.38-14.34,23.15-26.49,38.31-36.45,15.56-9.96,30.73-16.33,45.49-19.12,14.37-2.79,29.73-4.18,46.09-4.18,9.98,0,20.35,1,31.13,2.99,10.77,1.99,20.95,3.98,30.53,5.97-9.98-17.53-18.76-36.64-26.34-57.36-7.58-21.11-15.36-42.22-23.35-63.33-31.53,6.37-64.45,11.75-98.77,16.13-34.32,3.98-67.44,7.17-99.37,9.56-2.79-11.95-6.19-24.1-10.18-36.45,19.16-.4,39.91-1,62.26-1.79,22.75-1.19,45.69-2.79,68.84-4.78,23.55-2.39,45.89-5.38,67.04-8.96-2.79-8.36-5.99-17.92-9.58-28.68-3.19-11.15-6.58-22.5-10.18-34.06-3.59-11.55-6.78-21.91-9.58-31.07,0,0,2.99-.8,8.98-2.39,5.99-1.99,13.17-4.18,21.55-6.57,8.78-2.39,17.16-4.78,25.14-7.17,8.38-2.39,14.57-4.18,18.56-5.38,2,12.35,4.79,28.28,8.38,47.8,3.59,19.12,8.38,38.84,14.37,59.15,13.57-2.39,28.13-5.38,43.7-8.96,15.96-3.58,31.93-7.97,47.89-13.14-3.19-2.39-4.79-6.37-4.79-11.95,0-8.76,2.79-15.93,8.38-21.51,5.99-5.58,13.57-8.36,22.75-8.36s17.36,2.59,24.54,7.77,10.77,12.75,10.77,22.7h.04Z"/>
</svg>