<?xml version="1.0" encoding="UTF-8"?>
<svg id="_レイヤー_1" xmlns="http://www.w3.org/2000/svg" version="1.1" viewBox="0 0 512 512">
  <!-- Generator: Adobe Illustrator 29.8.4, SVG Export Plug-In . SVG Version: 2.1.1 Build 6)  -->
  <defs>
    <style>
      .st0, .st1 {
        fill: #cfa914;
      }

      .st2 {
        fill: #fff;
      }

      .st2, .st3, .st1 {
        display: none;
      }

      .st3 {
        fill: #dcdc2d;
        stroke: #fff;
        stroke-miterlimit: 10;
      }
    </style>
  </defs>
  <circle class="st3" cx="256" cy="256" r="256"/>
  <rect class="st1" width="512" height="512"/>
  <path class="st0" d="M435.38,409.48c0,6.25-2.94,11.39-8.82,15.43-5.51,4.04-11.21,6.06-17.08,6.06-6.25,0-11.76-2.57-16.53-7.72-4.41-5.14-6.61-10.66-6.61-16.53,0-4.78,1.47-9,4.41-12.68,2.94-3.67,6.61-6.25,11.02-7.72-15.06-14.7-33.8-26.82-56.21-36.37s-43.72-16.72-63.93-21.49l-.55,41.33c-.37,28.66-8.63,50.15-24.8,64.48-15.8,14.33-37.84,21.49-66.13,21.49-11.76,0-24.25-1.29-37.48-3.86-12.86-2.57-25.17-6.8-36.92-12.68-11.39-6.25-20.76-14.14-28.11-23.7-7.35-9.92-11.02-22.04-11.02-36.37s3.67-27.56,11.02-38.58c7.72-11.02,17.45-20.02,29.21-27,11.76-7.35,24.62-12.86,38.58-16.53,13.96-3.67,27.19-5.51,39.68-5.51h11.02c3.67,0,7.35.37,11.02,1.1v23.7c-4.41-.74-8.82-1.1-13.23-1.1-4.41-.37-8.82-.55-13.23-.55-10.65,0-22.23,2.02-34.72,6.06-12.49,3.67-23.33,9.74-32.52,18.19-8.82,8.08-13.23,18.55-13.23,31.41,0,11.39,3.31,20.94,9.92,28.66,6.61,7.35,14.88,12.86,24.8,16.53s19.84,5.51,29.76,5.51c24.98,0,41.33-5.88,49.05-17.64,8.08-12.12,12.12-29.58,12.12-52.35,0-49.23-.18-98.46-.55-147.7-.37-49.23-.92-98.28-1.65-147.14h46.29l.55,96.99,84.87-3.31c-.74-2.94-1.1-5.33-1.1-7.16,0-7.72,2.76-14.7,8.27-20.94,5.88-6.25,12.68-9.37,20.39-9.37s15.06,3.12,20.94,9.37c6.25,5.88,9.37,12.86,9.37,20.94s-3.12,14.88-9.37,20.39c-5.88,5.51-12.68,8.45-20.39,8.82l-112.98,3.31,1.1,124.55c10.66,2.94,21.31,6.25,31.96,9.92,10.66,3.67,21.13,7.9,31.41,12.68,7.35,3.31,15.98,8.08,25.9,14.33,10.29,5.88,20.39,12.86,30.31,20.94,9.92,7.72,18,15.98,24.25,24.8,6.61,8.82,9.92,17.82,9.92,27h.02Z"/>
  <path class="st2" d="M435.38,409.48c0,6.25-2.94,11.39-8.82,15.43-5.51,4.04-11.21,6.06-17.08,6.06-6.25,0-11.76-2.57-16.53-7.72-4.41-5.14-6.61-10.66-6.61-16.53,0-4.78,1.47-9,4.41-12.68,2.94-3.67,6.61-6.25,11.02-7.72-15.06-14.7-33.8-26.82-56.21-36.37s-43.72-16.72-63.93-21.49l-.55,41.33c-.37,28.66-8.63,50.15-24.8,64.48-15.8,14.33-37.84,21.49-66.13,21.49-11.76,0-24.25-1.29-37.48-3.86-12.86-2.57-25.17-6.8-36.92-12.68-11.39-6.25-20.76-14.14-28.11-23.7-7.35-9.92-11.02-22.04-11.02-36.37s3.67-27.56,11.02-38.58c7.72-11.02,17.45-20.02,29.21-27,11.76-7.35,24.62-12.86,38.58-16.53,13.96-3.67,27.19-5.51,39.68-5.51h11.02c3.67,0,7.35.37,11.02,1.1v23.7c-4.41-.74-8.82-1.1-13.23-1.1-4.41-.37-8.82-.55-13.23-.55-10.65,0-22.23,2.02-34.72,6.06-12.49,3.67-23.33,9.74-32.52,18.19-8.82,8.08-13.23,18.55-13.23,31.41,0,11.39,3.31,20.94,9.92,28.66,6.61,7.35,14.88,12.86,24.8,16.53s19.84,5.51,29.76,5.51c24.98,0,41.33-5.88,49.05-17.64,8.08-12.12,12.12-29.58,12.12-52.35,0-49.23-.18-98.46-.55-147.7-.37-49.23-.92-98.28-1.65-147.14h46.29l.55,96.99,84.87-3.31c-.74-2.94-1.1-5.33-1.1-7.16,0-7.72,2.76-14.7,8.27-20.94,5.88-6.25,12.68-9.37,20.39-9.37s15.06,3.12,20.94,9.37c6.25,5.88,9.37,12.86,9.37,20.94s-3.12,14.88-9.37,20.39c-5.88,5.51-12.68,8.45-20.39,8.82l-112.98,3.31,1.1,124.55c10.66,2.94,21.31,6.25,31.96,9.92,10.66,3.67,21.13,7.9,31.41,12.68,7.35,3.31,15.98,8.08,25.9,14.33,10.29,5.88,20.39,12.86,30.31,20.94,9.92,7.72,18,15.98,24.25,24.8,6.61,8.82,9.92,17.82,9.92,27h.02Z"/>
</svg>