<?xml version="1.0" encoding="UTF-8"?>
<svg id="_レイヤー_1" data-name="レイヤー_1" xmlns="http://www.w3.org/2000/svg" version="1.1" viewBox="0 0 101.15 101.15">
  <!-- Generator: Adobe Illustrator 29.8.4, SVG Export Plug-In . SVG Version: 2.1.1 Build 6)  -->
  <defs>
    <style>
      .st0, .st1 {
        fill: #d6ae00;
      }

      .st1 {
        display: none;
      }
    </style>
  </defs>
  <path class="st1" d="M50.58,0l4.46,13.18c5.25,15.51,17.43,27.69,32.94,32.94l13.18,4.46-13.18,4.46c-15.51,5.25-27.69,17.43-32.94,32.94l-4.46,13.18-4.46-13.18c-5.25-15.51-17.43-27.69-32.94-32.94L0,50.58l13.18-4.46c15.51-5.25,27.69-17.43,32.94-32.94L50.58,0Z"/>
  <polygon class="st0" points="42.11 55.44 28.37 72.78 45.71 59.04 50.58 101.1 55.44 59.04 72.78 72.78 59.04 55.44 101.1 50.58 59.04 45.71 72.78 28.37 55.44 42.11 50.58 .06 45.71 42.11 28.37 28.37 42.11 45.71 .06 50.58 42.11 55.44"/>
</svg>